<svg width="165" height="37" viewBox="0 0 165 37" fill="none" xmlns="http://www.w3.org/2000/svg">
<rect x="0.5" y="0.5" width="164" height="36" stroke="#883240"/>
<path d="M38.3545 15.0059C39.2614 15.0059 40.0156 15.1175 40.6172 15.3408C41.2188 15.5596 41.6699 15.8877 41.9707 16.3252C42.276 16.7627 42.4287 17.3073 42.4287 17.959C42.4287 18.3646 42.3604 18.7337 42.2236 19.0664C42.0869 19.3991 41.891 19.6976 41.6357 19.9619C41.3851 20.2217 41.0843 20.4495 40.7334 20.6455L43.6455 25H40.583L38.4639 21.3633H37.7803V25H35.0801V15.0059H38.3545ZM38.3135 17.0498H37.7803V19.333H38.2861C38.7008 19.333 39.0404 19.2419 39.3047 19.0596C39.569 18.8773 39.7012 18.5514 39.7012 18.082C39.7012 17.7585 39.5918 17.5055 39.373 17.3232C39.1543 17.141 38.8011 17.0498 38.3135 17.0498ZM47.8838 17.1182C48.6357 17.1182 49.2852 17.2503 49.832 17.5146C50.3789 17.7744 50.8005 18.1663 51.0967 18.6904C51.3929 19.2145 51.541 19.8708 51.541 20.6592V21.8486H46.7627C46.7855 22.2542 46.9359 22.5869 47.2139 22.8467C47.4964 23.1064 47.9111 23.2363 48.458 23.2363C48.9411 23.2363 49.3831 23.1885 49.7842 23.0928C50.1898 22.9971 50.6068 22.849 51.0352 22.6484V24.5693C50.6615 24.7653 50.2536 24.9089 49.8115 25C49.3695 25.0911 48.8112 25.1367 48.1367 25.1367C47.3574 25.1367 46.6602 24.9977 46.0449 24.7197C45.4297 24.4417 44.9443 24.0111 44.5889 23.4277C44.238 22.8444 44.0625 22.0947 44.0625 21.1787C44.0625 20.249 44.222 19.4857 44.541 18.8887C44.86 18.2871 45.3066 17.8428 45.8809 17.5557C46.4551 17.264 47.1227 17.1182 47.8838 17.1182ZM47.9795 18.9365C47.665 18.9365 47.4007 19.0368 47.1865 19.2373C46.9769 19.4333 46.8538 19.7432 46.8174 20.167H49.1143C49.1097 19.9391 49.0641 19.7318 48.9775 19.5449C48.891 19.3581 48.7633 19.21 48.5947 19.1006C48.4307 18.9912 48.2256 18.9365 47.9795 18.9365ZM56.832 17.1182C57.8118 17.1182 58.5775 17.362 59.1289 17.8496C59.6803 18.3327 59.9561 19.0231 59.9561 19.9209V25H58.1035L57.5908 23.9746H57.5361C57.3174 24.248 57.0918 24.4714 56.8594 24.6445C56.6315 24.8132 56.3695 24.9362 56.0732 25.0137C55.777 25.0957 55.4147 25.1367 54.9863 25.1367C54.5397 25.1367 54.1387 25.0456 53.7832 24.8633C53.4277 24.681 53.1475 24.4053 52.9424 24.0361C52.7373 23.667 52.6348 23.1999 52.6348 22.6348C52.6348 21.8053 52.9219 21.1901 53.4961 20.7891C54.0703 20.388 54.902 20.1624 55.9912 20.1123L57.2832 20.0713V19.9619C57.2832 19.6156 57.1966 19.3695 57.0234 19.2236C56.8548 19.0778 56.627 19.0049 56.3398 19.0049C56.0345 19.0049 55.6927 19.0596 55.3145 19.1689C54.9408 19.2738 54.5648 19.4105 54.1865 19.5791L53.4141 17.8154C53.8607 17.5876 54.3665 17.4144 54.9316 17.2959C55.4967 17.1774 56.1302 17.1182 56.832 17.1182ZM57.2969 21.541L56.6816 21.5684C56.1895 21.5866 55.8431 21.6732 55.6426 21.8281C55.4466 21.9785 55.3486 22.195 55.3486 22.4775C55.3486 22.7419 55.4193 22.9378 55.5605 23.0654C55.7018 23.1885 55.8887 23.25 56.1211 23.25C56.4447 23.25 56.7204 23.1475 56.9482 22.9424C57.1807 22.7373 57.2969 22.4707 57.2969 22.1426V21.541ZM64.1807 25.1367C63.3831 25.1367 62.7269 24.7972 62.2119 24.1182C61.6969 23.4391 61.4395 22.4456 61.4395 21.1377C61.4395 19.8161 61.7038 18.8158 62.2324 18.1367C62.7611 17.4577 63.4447 17.1182 64.2832 17.1182C64.6296 17.1182 64.9281 17.1683 65.1787 17.2686C65.4294 17.3688 65.6458 17.5055 65.8281 17.6787C66.015 17.8473 66.1768 18.0387 66.3135 18.2529H66.3682C66.3363 18.057 66.3066 17.7881 66.2793 17.4463C66.252 17.0999 66.2383 16.7627 66.2383 16.4346V14.3633H68.9316V25H66.915L66.3408 24.0225H66.2383C66.1152 24.2275 65.9603 24.4144 65.7734 24.583C65.5911 24.7516 65.3678 24.8861 65.1035 24.9863C64.8438 25.0866 64.5361 25.1367 64.1807 25.1367ZM65.2744 23.0244C65.7028 23.0244 66.0036 22.89 66.1768 22.6211C66.3545 22.3477 66.4502 21.9329 66.4639 21.377V21.165C66.4639 20.5544 66.3773 20.0872 66.2041 19.7637C66.0355 19.4355 65.7165 19.2715 65.2471 19.2715C64.9281 19.2715 64.6637 19.4264 64.4541 19.7363C64.2445 20.0462 64.1396 20.527 64.1396 21.1787C64.1396 21.8213 64.2445 22.2907 64.4541 22.5869C64.6683 22.8786 64.9417 23.0244 65.2744 23.0244ZM83.875 17.1182C84.7591 17.1182 85.4336 17.3438 85.8984 17.7949C86.3678 18.2461 86.6025 18.9684 86.6025 19.9619V25H83.9297V20.7891C83.9297 20.2012 83.8499 19.7933 83.6904 19.5654C83.5355 19.333 83.3031 19.2168 82.9932 19.2168C82.5602 19.2168 82.2594 19.4059 82.0908 19.7842C81.9268 20.1624 81.8447 20.6979 81.8447 21.3906V25H79.165V20.7891C79.165 20.4154 79.1309 20.1146 79.0625 19.8867C78.9987 19.6543 78.9007 19.4857 78.7686 19.3809C78.6364 19.2715 78.4701 19.2168 78.2695 19.2168C77.9642 19.2168 77.7249 19.3102 77.5518 19.4971C77.3831 19.6794 77.2646 19.9482 77.1963 20.3037C77.1279 20.6592 77.0938 21.0944 77.0938 21.6094V25H74.4209V17.2549H76.4375L76.8271 18.2119H76.9023C77.0391 18.0023 77.2145 17.8154 77.4287 17.6514C77.6475 17.4873 77.9049 17.3574 78.2012 17.2617C78.502 17.166 78.8438 17.1182 79.2266 17.1182C79.7962 17.1182 80.2656 17.2139 80.6348 17.4053C81.0039 17.5967 81.3047 17.861 81.5371 18.1982H81.6191C81.8652 17.8519 82.182 17.5853 82.5693 17.3984C82.9567 17.2116 83.3919 17.1182 83.875 17.1182ZM95.8174 21.1104C95.8174 21.7575 95.7285 22.3317 95.5508 22.833C95.373 23.3343 95.1156 23.7559 94.7783 24.0977C94.4411 24.4395 94.0332 24.6992 93.5547 24.877C93.0762 25.0501 92.5361 25.1367 91.9346 25.1367C91.374 25.1367 90.859 25.0501 90.3896 24.877C89.9248 24.6992 89.5192 24.4395 89.1729 24.0977C88.8265 23.7559 88.5576 23.3343 88.3662 22.833C88.1794 22.3317 88.0859 21.7575 88.0859 21.1104C88.0859 20.2536 88.2409 19.529 88.5508 18.9365C88.8652 18.3441 89.3118 17.8929 89.8906 17.583C90.474 17.2731 91.1689 17.1182 91.9756 17.1182C92.7184 17.1182 93.3792 17.2731 93.958 17.583C94.5368 17.8929 94.9902 18.3441 95.3184 18.9365C95.651 19.529 95.8174 20.2536 95.8174 21.1104ZM90.7998 21.1104C90.7998 21.5524 90.8385 21.9261 90.916 22.2314C90.9935 22.5322 91.1165 22.7624 91.2852 22.9219C91.4583 23.0768 91.6839 23.1543 91.9619 23.1543C92.2399 23.1543 92.4609 23.0768 92.625 22.9219C92.7891 22.7624 92.9076 22.5322 92.9805 22.2314C93.0579 21.9261 93.0967 21.5524 93.0967 21.1104C93.0967 20.6683 93.0579 20.2992 92.9805 20.0029C92.9076 19.7067 92.7868 19.4834 92.6182 19.333C92.4541 19.1826 92.2308 19.1074 91.9482 19.1074C91.5426 19.1074 91.2487 19.276 91.0664 19.6133C90.8887 19.9505 90.7998 20.4495 90.7998 21.1104ZM102.024 17.1182C102.17 17.1182 102.323 17.1296 102.482 17.1523C102.642 17.1706 102.76 17.1865 102.838 17.2002L102.599 19.7227C102.512 19.6999 102.4 19.6816 102.264 19.668C102.127 19.6497 101.936 19.6406 101.689 19.6406C101.521 19.6406 101.341 19.6566 101.149 19.6885C100.958 19.7204 100.776 19.7887 100.603 19.8936C100.434 19.9938 100.295 20.1488 100.186 20.3584C100.076 20.5635 100.021 20.8415 100.021 21.1924V25H97.3486V17.2549H99.3379L99.7549 18.4922H99.8848C100.026 18.237 100.206 18.0068 100.425 17.8018C100.648 17.5921 100.896 17.4258 101.17 17.3027C101.448 17.1797 101.733 17.1182 102.024 17.1182ZM107.411 17.1182C108.163 17.1182 108.812 17.2503 109.359 17.5146C109.906 17.7744 110.328 18.1663 110.624 18.6904C110.92 19.2145 111.068 19.8708 111.068 20.6592V21.8486H106.29C106.313 22.2542 106.463 22.5869 106.741 22.8467C107.024 23.1064 107.438 23.2363 107.985 23.2363C108.468 23.2363 108.91 23.1885 109.312 23.0928C109.717 22.9971 110.134 22.849 110.562 22.6484V24.5693C110.189 24.7653 109.781 24.9089 109.339 25C108.897 25.0911 108.339 25.1367 107.664 25.1367C106.885 25.1367 106.188 24.9977 105.572 24.7197C104.957 24.4417 104.472 24.0111 104.116 23.4277C103.765 22.8444 103.59 22.0947 103.59 21.1787C103.59 20.249 103.749 19.4857 104.068 18.8887C104.387 18.2871 104.834 17.8428 105.408 17.5557C105.982 17.264 106.65 17.1182 107.411 17.1182ZM107.507 18.9365C107.192 18.9365 106.928 19.0368 106.714 19.2373C106.504 19.4333 106.381 19.7432 106.345 20.167H108.642C108.637 19.9391 108.591 19.7318 108.505 19.5449C108.418 19.3581 108.291 19.21 108.122 19.1006C107.958 18.9912 107.753 18.9365 107.507 18.9365ZM120.304 19.1484H122.854V20.9805H120.304V23.4482H118.472V20.9805H115.922V19.1484H118.472V16.6396H120.304V19.1484Z" fill="#883240"/>
</svg>
