<svg width="375" height="201" viewBox="0 0 375 201" fill="none" xmlns="http://www.w3.org/2000/svg">
<g clip-path="url(#clip0_935_3449)">
<path d="M375 25H0V201C45.2305 172.001 103.867 160.754 160.224 170.268L163.435 170.81C242.85 184.217 324.411 157.653 370.601 103.334L375 98.1612V25Z" fill="#883240" fill-opacity="0.3"/>
<path d="M375 0H0V145.394C50.3529 192.595 133.783 205.576 201.92 176.813L245.383 158.465C285.902 141.36 333.945 140.847 375 157.08V0Z" fill="#B70F2B"/>
<path d="M195 -19.5C195 37.1092 149.109 83 92.5 83C35.8908 83 -10 37.1092 -10 -19.5C-10 -76.1092 35.8908 -122 92.5 -122C149.109 -122 195 -76.1092 195 -19.5Z" fill="#12151F" fill-opacity="0.1"/>
</g>
<defs>
<clipPath id="clip0_935_3449">
<rect width="375" height="201" fill="white"/>
</clipPath>
</defs>
</svg>
